<?xml version="1.0" encoding="utf-8"?>
<!-- Generator: Adobe Illustrator 25.4.1, SVG Export Plug-In . SVG Version: 6.00 Build 0)  -->
<svg version="1.1" id="Capa_1" xmlns="http://www.w3.org/2000/svg" xmlns:xlink="http://www.w3.org/1999/xlink" x="0px" y="0px" viewBox="0 0 300 300" style="enable-background: new 0 0 300 300" xml:space="preserve">
<style>.st0 {
  fill: #007dc1;
}

</style>
<path class="st0" d="M235.5,109.5l-37.6-37.6l-42.8,42.8l-36.7,36.7L156,189l36.7-36.7l13.8,13.8c-3.1,8.5-8.5,16.6-16.4,24.4
	c-8.4,8.4-17.4,13.9-27.5,16.7c-10,2.8-19.7,3-29.6,0.4c-9.8-2.5-18.4-7.6-26.3-15.4c-7.9-7.9-13-16.5-15.6-26.4
	c-2.6-9.9-2.4-19.5,0.5-29.4c3-10.2,8.5-19.3,17-27.7c12.4-12.4,26-18.5,41.5-18.6l20.8-0.1l-0.6-58.1l-19.6-0.8
	c-15.4-0.6-30.7,2.4-45.3,9c-14,6.3-27.2,15.5-39.1,27.5c-15.9,15.9-26.9,34.1-32.8,53.9c-5.9,20.1-6.2,40.5-1,60.6
	c5.2,20.1,15.7,38.1,31.1,53.5c15.5,15.5,33.5,25.9,53.5,31.1c20.1,5.2,40.5,4.9,60.6-1c19.9-5.8,37.9-16.8,53.7-32.6
	c11-11,19.9-23.4,26.5-36.9c6.8-13.8,10.7-28.1,11.6-42.5l0.6-9.3L235.5,109.5z"></path>
</svg>
